<?xml version="1.0" standalone="no"?><!DOCTYPE svg PUBLIC "-//W3C//DTD SVG 1.1//EN" "http://www.w3.org/Graphics/SVG/1.1/DTD/svg11.dtd"><svg t="1729237796032" class="icon" viewBox="0 0 1024 1024" version="1.1" xmlns="http://www.w3.org/2000/svg" p-id="11199" xmlns:xlink="http://www.w3.org/1999/xlink" width="200" height="200"><path d="M800 448h-224V224a224 224 0 1 1 224 224z m0-352a128 128 0 0 0-128 128v128h128a128 128 0 0 0 0-256zM224 1024a224 224 0 0 1 0-448h224v224a224 224 0 0 1-224 224z m128-352H224a128 128 0 1 0 128 128v-128zM0 224a224 224 0 0 1 448 0v224H224a224 224 0 0 1-224-224z m352 0a128 128 0 1 0-128 128h128V224z m672 576a224 224 0 0 1-448 0v-224h224a224 224 0 0 1 224 224z m-352 0a128 128 0 1 0 128-128h-128v128z" fill="#0590DF" p-id="11200"></path></svg>